<svg id="Capa_1" data-name="Capa 1" xmlns="http://www.w3.org/2000/svg" viewBox="0 0 30 30"><defs><style>.cls-1{fill:#999;}</style></defs><path class="cls-1" d="M23.7,14.9a.79.79,0,0,0,.8.8.74.74,0,0,0,.8-.8,10,10,0,0,0-10-10,.79.79,0,0,0-.8.8.74.74,0,0,0,.8.8A8.32,8.32,0,0,1,23.7,14.9ZM14.5,9.7a.79.79,0,0,0,.8.8,4.27,4.27,0,0,1,4.3,4.3.79.79,0,0,0,.8.8.74.74,0,0,0,.8-.8A5.8,5.8,0,0,0,15.4,9C14.8,9,14.5,9.3,14.5,9.7ZM15.2.2a.79.79,0,0,0-.8.8.74.74,0,0,0,.8.8A13.14,13.14,0,0,1,28.3,14.9a.79.79,0,0,0,.8.8.74.74,0,0,0,.8-.8A14.79,14.79,0,0,0,15.2.2Zm4.2,17.5a.76.76,0,0,0-.5-.2h0a.76.76,0,0,0-.5.2l-1.6,1.6a1.57,1.57,0,0,1-2.2,0l-3.7-3.4a1.57,1.57,0,0,1,0-2.2l1.8-1.8a.78.78,0,0,0,0-1.1L5.3,3.5a.73.73,0,0,0-1,0c-.1.1-2.4,2.4-2.9,3C0,7.9-.2,10.8.8,13.3,3,18.8,10.3,25.5,16.4,29.2a6.63,6.63,0,0,0,2.9.6h0a6.14,6.14,0,0,0,4.1-1.4c1.3-1.1,2.8-2.7,2.9-2.8a.67.67,0,0,0,0-1Zm3,9.5a4.41,4.41,0,0,1-3.1,1h0a4.8,4.8,0,0,1-2.1-.4C10.3,23.7,4,17.4,2.2,12.7c-.8-2.1-.5-4.4.2-5.2L4.8,5.1,11,11.3,9.7,12.6a3,3,0,0,0,0,4.3l3.7,3.4a3.21,3.21,0,0,0,4.3,0l1.1-1.1L24.6,25A11.45,11.45,0,0,1,22.4,27.2Z"/></svg>