<?xml version="1.0" standalone="no"?>
<!DOCTYPE svg PUBLIC "-//W3C//DTD SVG 20010904//EN"
 "http://www.w3.org/TR/2001/REC-SVG-20010904/DTD/svg10.dtd">
<svg version="1.0" xmlns="http://www.w3.org/2000/svg"
 width="947.000000pt" height="947.000000pt" viewBox="0 0 947.000000 947.000000"
 preserveAspectRatio="xMidYMid meet">
<metadata>
Created by potrace 1.11, written by Peter Selinger 2001-2013
</metadata>
<g transform="translate(0.000000,947.000000) scale(0.100000,-0.100000)"
fill="#000000" stroke="none">
<path d="M5835 9450 c-33 -4 -624 -8 -1313 -9 l-1253 -1 -45 -31 c-24 -16 -80
-76 -123 -133 -44 -56 -100 -121 -125 -144 -25 -23 -77 -88 -114 -144 -173
-257 -232 -289 -386 -209 -41 21 -145 89 -231 151 -167 119 -198 132 -255 107
-19 -8 -188 -149 -375 -313 -187 -163 -529 -461 -760 -662 -231 -200 -432
-378 -447 -395 -52 -58 -49 -79 35 -249 108 -221 180 -394 338 -815 94 -253
142 -396 149 -443 5 -38 23 -117 40 -176 163 -580 157 -1279 -16 -1829 -40
-128 -80 -234 -182 -485 l-95 -235 -111 -145 c-61 -80 -144 -183 -183 -229
-100 -117 -107 -163 -35 -244 20 -23 170 -188 332 -367 340 -373 913 -1010
1271 -1410 273 -305 313 -345 358 -355 51 -11 89 10 241 130 80 63 178 131
219 152 65 33 82 38 140 37 43 -1 85 -9 121 -23 67 -27 254 -130 331 -182 31
-21 92 -56 135 -77 44 -22 104 -57 134 -77 30 -20 117 -68 194 -107 76 -38
161 -84 190 -102 28 -19 152 -90 276 -159 124 -69 267 -150 319 -181 155 -92
202 -89 395 28 66 40 229 135 361 211 307 176 454 268 635 396 146 103 306
187 392 208 26 6 86 11 135 11 155 -1 263 -53 426 -208 140 -134 174 -133 303
1 44 45 402 438 795 872 394 435 798 880 899 990 100 110 191 214 201 230 32
51 25 82 -52 211 -188 315 -372 639 -398 701 -16 37 -57 147 -91 243 -63 178
-129 331 -155 360 -9 10 -15 49 -17 125 -3 72 -13 150 -31 226 -49 214 -61
340 -61 629 0 282 9 374 60 635 38 190 94 377 191 633 155 412 287 696 415
893 33 52 67 109 75 128 21 50 19 105 -7 146 -14 23 -138 123 -363 293 -188
142 -489 371 -669 509 -444 342 -484 372 -553 404 -108 52 -169 36 -379 -101
-145 -93 -195 -108 -248 -73 -15 10 -87 97 -160 194 -281 370 -267 355 -332
383 -32 15 -65 35 -75 45 -11 13 -39 23 -88 30 -79 12 -284 12 -378 1z m473
-168 c27 -26 61 -65 75 -87 60 -97 421 -572 449 -592 61 -43 98 -33 274 78
150 95 216 123 288 123 103 -1 111 -6 722 -476 252 -194 529 -406 614 -470 85
-65 164 -131 174 -149 28 -48 16 -93 -62 -231 -242 -428 -416 -859 -548 -1363
l-45 -170 -6 -405 c-6 -407 7 -862 28 -978 17 -97 49 -191 73 -219 20 -23 22
-32 14 -55 -11 -31 -6 -162 6 -190 7 -16 2 -18 -40 -18 -27 0 -74 -7 -104 -15
-91 -25 -1093 -261 -1333 -314 -1225 -272 -1813 -309 -2308 -146 -208 69 -400
229 -480 400 -49 104 -61 167 -64 332 -2 83 -6 167 -10 185 -19 91 -92 161
-201 195 -85 26 -305 24 -429 -5 -201 -45 -507 -172 -1080 -446 -610 -292
-1098 -537 -1242 -624 -73 -44 -133 -77 -133 -74 0 2 7 10 16 16 9 7 22 36 30
65 11 46 11 57 -1 81 -13 26 -11 34 32 131 105 240 164 483 168 694 1 72 9
180 18 240 36 242 12 816 -45 1065 -96 422 -287 978 -476 1385 -103 223 -112
246 -112 301 0 69 21 98 155 212 334 285 673 580 930 806 160 141 309 265 333
277 55 27 101 21 157 -21 22 -17 89 -65 150 -108 60 -42 136 -98 168 -125 103
-86 159 -95 229 -37 21 17 81 88 135 158 222 290 446 563 474 578 16 8 58 17
92 20 131 12 931 21 1879 22 l986 1 50 -47z"/>
<path d="M3180 7640 l0 -690 90 0 90 0 0 280 0 280 208 0 c211 0 307 9 398 35
156 45 259 199 258 385 -1 145 -62 266 -164 328 -102 61 -190 72 -587 72
l-293 0 0 -690z m726 501 c170 -77 177 -347 11 -429 -62 -31 -192 -44 -397
-40 l-155 3 -3 243 -2 242 252 0 c224 0 258 -3 294 -19z"/>
<path d="M4460 7640 l0 -690 90 0 90 0 0 605 0 605 355 0 355 0 0 85 0 85
-445 0 -445 0 0 -690z"/>
<path d="M5360 8326 c0 -2 124 -230 276 -506 l277 -501 -27 -63 c-48 -113 -96
-161 -171 -171 -36 -5 -108 8 -158 30 -16 7 -18 1 -15 -71 l3 -78 50 -13 c28
-7 82 -13 121 -13 136 0 195 52 304 270 61 121 540 1113 540 1117 0 2 -41 2
-91 1 l-91 -3 -191 -413 c-105 -227 -195 -411 -199 -410 -4 2 -107 188 -227
413 l-219 410 -91 3 c-50 1 -91 1 -91 -2z"/>
</g>
</svg>
